<?xml version="1.0" encoding="UTF-8"?>
<!DOCTYPE svg PUBLIC "-//W3C//DTD SVG 1.1//EN" "http://www.w3.org/Graphics/SVG/1.1/DTD/svg11.dtd">
<!-- Creator: CorelDRAW 2020 (64-Bit) -->
<svg xmlns="http://www.w3.org/2000/svg" xml:space="preserve" width="7.08337in" height="6.90859in" version="1.1" style="shape-rendering:geometricPrecision; text-rendering:geometricPrecision; image-rendering:optimizeQuality; fill-rule:evenodd; clip-rule:evenodd"
viewBox="0 0 7083.4 6908.63"
 xmlns:xlink="http://www.w3.org/1999/xlink"
 xmlns:xodm="http://www.corel.com/coreldraw/odm/2003">
 <defs>
  <style type="text/css">
   <![CDATA[
    .fil0 {fill:#5B5B5B;fill-rule:nonzero}
   ]]>
  </style>
 </defs>
 <g id="Слой_x0020_1">
  <metadata id="CorelCorpID_0Corel-Layer"/>
  <path class="fil0" d="M3541.68 0c-1955.62,0 -3541.68,1586.07 -3541.68,3541.83 0,1524.23 975.5,2878.09 2421.47,3360.22 177.08,31 243.49,-75.25 243.49,-168.23 0,-84.11 -4.43,-363.02 -4.43,-659.63 -889.69,163.6 -1119.9,-217.12 -1190.73,-416.34 -78.49,-193.53 -203.48,-365.68 -363.05,-500.26 -123.96,-66.41 -301.04,-230.21 -4.43,-234.63 229.88,24.92 433.22,160.42 544.58,362.99 133.52,239.94 386.75,388.82 661.42,388.82 129.57,0 257.11,-33.36 370.05,-96.67 15.35,-179.88 95.67,-348.44 225.84,-473.6 -788.02,-88.54 -1611.46,-394.03 -1611.46,-1748.71 0.01,-6.22 -0.16,-13.13 -0.16,-19.52 0,-345.14 129.74,-678.16 363.15,-932.27 -48.22,-136.34 -72.92,-280.07 -72.92,-424.74 0,-176.83 36.98,-352.11 108.3,-513.87 71.32,-161.76 296.6,-92.97 973.96,363.02 287.88,-79.19 586.68,-119.55 885.47,-119.55 298.79,0 597.59,40.35 885.37,119.44 677.34,-460.42 973.96,-363.02 973.96,-363.02 71.44,162.06 108.41,337.01 108.41,513.97 0,144.65 -24.86,288.36 -73.02,424.62 233.47,252.93 363.29,585 363.29,929.29 0,7.53 -0.17,15.22 -0.17,22.58 0,1359.11 -827.87,1660.17 -1615.89,1748.71 154.82,156.86 241.65,368.61 241.65,589.07 0,22.02 -1.02,44.24 -2.66,66.15 0,473.71 -4.43,854.43 -4.43,973.96 0,92.97 66.41,203.65 243.49,168.23 1441.63,-485.29 2412.86,-1837.22 2412.86,-3358.3 0,-1956.29 -1585.54,-3542.69 -3541.82,-3543.56l0.11 0z"/>
 </g>
</svg>
