<?xml version="1.0" encoding="UTF-8"?>
<!DOCTYPE svg PUBLIC "-//W3C//DTD SVG 1.1//EN" "http://www.w3.org/Graphics/SVG/1.1/DTD/svg11.dtd">
<!-- Creator: CorelDRAW 2020 (64-Bit) -->
<svg xmlns="http://www.w3.org/2000/svg" xml:space="preserve" width="15.7787in" height="8.5in" version="1.1" style="shape-rendering:geometricPrecision; text-rendering:geometricPrecision; image-rendering:optimizeQuality; fill-rule:evenodd; clip-rule:evenodd"
viewBox="0 0 11289 6081.41"
 xmlns:xlink="http://www.w3.org/1999/xlink"
 xmlns:xodm="http://www.corel.com/coreldraw/odm/2003">
 <defs>
  <style type="text/css">
   <![CDATA[
    .str0 {stroke:black;stroke-width:2.15;stroke-miterlimit:2.61313}
    .fil0 {fill:none}
    .fil3 {fill:#FEFEFE}
    .fil2 {fill:#C5C6C6}
    .fil1 {fill:black}
   ]]>
  </style>
 </defs>
 <g id="Слой_x0020_1">
  <metadata id="CorelCorpID_0Corel-Layer"/>
  <polygon class="fil0" points="1823.15,1093.67 3646.3,1093.67 3303.57,4892.92 1823.15,5202.6 342.72,4892.92 -0,1093.67 "/>
  <g id="_2017264714576">
   <polygon class="fil0" points="274.02,1344.08 575.47,4685.77 1823.15,4946.77 3070.83,4685.77 3372.28,1344.08 "/>
  </g>
  <polygon class="fil1" points="1823.15,1093.67 3646.3,1093.67 3303.57,4892.92 1823.15,5202.6 342.72,4892.92 -0,1093.67 "/>
  <polygon class="fil1 str0" points="173.57,1252.28 490.15,4761.71 1823.15,5040.55 1823.15,1252.28 "/>
  <polygon class="fil2" points="1823.15,1252.28 1823.15,5040.55 3156.15,4761.71 3472.73,1252.28 "/>
  <polygon class="fil3" points="2791.98,2985.96 2667.89,4338.67 1823.15,4538.1 980.12,4337.77 924.65,3745.73 1390.88,3733.94 1410.54,3972.51 1823.15,4077.32 2252.89,3968.47 2301.33,3429.49 895.02,3429.49 857.35,2983.85 792.29,2266.3 792.29,2266.3 751.89,1820.66 1199.35,1820.66 2447.26,1820.66 2896.13,1821.56 2856.05,2263.59 1239.77,2266.3 1304.86,2983.85 "/>
  <polygon class="fil0" points="9465.85,1093.67 11289,1093.67 10946.27,4892.92 9465.85,5202.6 7985.42,4892.92 7642.7,1093.67 "/>
  <g id="_2017264721728">
   <polygon class="fil0" points="7916.72,1344.08 8218.16,4685.77 9465.85,4946.77 10713.53,4685.77 11014.98,1344.08 "/>
  </g>
  <polygon class="fil1" points="9465.85,1093.67 11289,1093.67 10946.27,4892.92 9465.85,5202.6 7985.42,4892.92 7642.7,1093.67 "/>
  <polygon class="fil1" points="7816.27,1252.28 8132.85,4761.71 9465.85,5040.55 9465.85,1252.28 "/>
  <polygon class="fil2" points="9465.85,1252.28 9465.85,5040.55 10798.85,4761.71 11115.43,1252.28 "/>
  <polygon class="fil3" points="10434.67,2985.96 10310.59,4338.67 9465.85,4538.1 8622.81,4337.76 8567.35,3745.73 9033.58,3733.94 9053.24,3972.51 9465.85,4077.32 9895.59,3968.47 9944.03,3429.49 8973.96,3429.49 8962.95,2989.69 9970.69,2985.31 10013.97,2264.23 8434.99,2266.3 8394.58,1820.66 8842.05,1820.66 10089.95,1820.66 10538.82,1821.56 "/>
  <g id="_2017264694896">
   <polygon class="fil0" points="5646.2,0 8344.54,0 7837.29,5623.07 5646.2,6081.41 3455.1,5623.07 2947.86,0 "/>
   <g>
    <polygon class="fil0" points="3414.07,426.05 3851.1,5270.62 5646.2,5646.13 7441.3,5270.62 7878.32,426.05 "/>
   </g>
   <polygon class="fil1" points="5646.2,0 8344.54,0 7837.29,5623.07 5646.2,6081.41 3455.1,5623.07 2947.86,0 "/>
   <polygon class="fil1" points="3204.75,234.76 3673.3,5428.87 5646.2,5841.56 5646.2,234.76 "/>
   <polygon class="fil2" points="5646.2,234.76 5646.2,5841.56 7619.1,5428.87 8087.65,234.76 "/>
   <polygon class="fil3" points="4743.66,5183.15 3982.34,5020.95 3908.26,4111.4 4443.51,4262.16 4444.4,4379.22 4743.66,4461.64 4743.66,947.96 5403.22,947.96 5403.22,5322.63 "/>
   <polygon class="fil3" points="5962.4,3486.53 5962.4,948.61 7603.41,953.68 7550.16,1607.98 6621.96,1597.83 6621.96,2675 7433.49,2634.42 7222.46,5007.33 5921.27,5311.7 5920.16,4663.59 6558.79,4473.79 6621.96,3486.53 "/>
  </g>
 </g>
</svg>
