<?xml version="1.0" encoding="UTF-8"?>
<!DOCTYPE svg PUBLIC "-//W3C//DTD SVG 1.1//EN" "http://www.w3.org/Graphics/SVG/1.1/DTD/svg11.dtd">
<!-- Creator: CorelDRAW 2020 (64-Bit) -->
<svg xmlns="http://www.w3.org/2000/svg" xml:space="preserve" width="8.5in" height="8.5in" version="1.1" style="shape-rendering:geometricPrecision; text-rendering:geometricPrecision; image-rendering:optimizeQuality; fill-rule:evenodd; clip-rule:evenodd"
viewBox="0 0 8651.29 8651.29"
 xmlns:xlink="http://www.w3.org/1999/xlink"
 xmlns:xodm="http://www.corel.com/coreldraw/odm/2003">
 <defs>
  <style type="text/css">
   <![CDATA[
    .fil0 {fill:black}
   ]]>
  </style>
   <clipPath id="id0">
    <rect width="8651.29" height="8651.29"/>
   </clipPath>
 </defs>
 <g id="Слой_x0020_1">
  <metadata id="CorelCorpID_0Corel-Layer"/>
  <g style="clip-path:url(#id0)">
   <image x="-0" y="-0" width="8651.3" height="8651.3" xlink:href="linkedin_Images\linkedin_ImgID1.png"/>
  </g>
  <path class="fil0" d="M1301.07 3463.9l1284.17 0 0 3886.32 -1284.17 0 0 -3886.32zm3447 1706.6l0 2179.72 -1284.17 0 0 -3886.32 1284.17 0 0 506.91c60.05,-21.74 41.49,-31.75 98.77,-103.99 102.23,-128.93 221.16,-205.89 350.52,-291.57 842.56,-558.08 2152.85,141.19 2152.85,1341.79l0 2433.18 -1284.17 0 0 -2179.72c0,-1013.1 -1317.97,-1013.21 -1317.97,0zm-2027.65 -3227.34c0,869.71 -1190.04,1045.49 -1480.13,314.23 -265.41,-669.03 347.17,-1282.86 1017.09,-1017.09 240.65,95.46 463.03,376.08 463.03,702.87zm-2720.42 -1149l0 7062.96c0,109.03 47.91,231.05 84.08,304.56 23.16,47.06 41.33,83.77 74.87,127.89 20.22,26.61 27.33,31.81 45.91,55.47 75.09,95.63 159.35,159.38 273.47,216.55 80.65,40.4 203.53,89.69 315.84,89.69l7062.96 0c109.03,0 231.05,-47.91 304.56,-84.08 114.39,-56.29 98.85,-54.42 183.37,-120.78 91.08,-71.51 54.88,-40.13 139.86,-147.38 32.57,-41.11 51.13,-75.08 76.69,-126.08 40.4,-80.65 89.69,-203.53 89.69,-315.84l0 -7062.96c0,-177.73 -128.57,-423.77 -249.48,-544.68l-228.84 -159.79c-80.65,-40.4 -203.53,-89.69 -315.84,-89.69l-7062.96 0c-190.45,0 -351.55,97.78 -487.93,204.85 -160.88,126.32 -306.24,377.32 -306.24,589.31z"/>
 </g>
</svg>
