<?xml version="1.0" encoding="UTF-8"?>
<!DOCTYPE svg PUBLIC "-//W3C//DTD SVG 1.1//EN" "http://www.w3.org/Graphics/SVG/1.1/DTD/svg11.dtd">
<!-- Creator: CorelDRAW 2020 (64-Bit) -->
<svg xmlns="http://www.w3.org/2000/svg" xml:space="preserve" width="0.577354in" height="0.666669in" version="1.1" style="shape-rendering:geometricPrecision; text-rendering:geometricPrecision; image-rendering:optimizeQuality; fill-rule:evenodd; clip-rule:evenodd"
viewBox="0 0 190.41 219.87"
 xmlns:xlink="http://www.w3.org/1999/xlink"
 xmlns:xodm="http://www.corel.com/coreldraw/odm/2003">
 <defs>
  <style type="text/css">
   <![CDATA[
    .fil0 {fill:#010101}
    .fil1 {fill:#010101;fill-rule:nonzero}
   ]]>
  </style>
 </defs>
 <g id="Слой_x0020_1">
  <metadata id="CorelCorpID_0Corel-Layer"/>
  <path class="fil0" d="M95.2 0l95.2 54.97 0 109.93 -95.2 54.97 -95.2 -54.97 0 -109.93 95.2 -54.97zm0 10.87l42.9 24.77 42.9 24.77 0 49.53 0 49.53 -42.9 24.77 -42.9 24.77 -42.9 -24.77 -42.9 -24.77 0 -49.53 0 -49.53 42.9 -24.77 42.9 -24.77z"/>
  <path class="fil1" d="M56.31 145.58l0 -30.21 -27.49 -41.1 11.35 0 14.09 21.58c2.62,4 5.06,8 7.29,12 2.17,-3.73 4.81,-7.92 7.88,-12.56l13.81 -21.01 11 0 -28.48 41.1 0 30.21 -9.46 0zm46.32 0l0 -71.3 24.56 0c5.54,0 9.77,0.33 12.7,1.01 4.08,0.95 7.57,2.66 10.46,5.11 3.77,3.19 6.57,7.24 8.43,12.18 1.88,4.95 2.8,10.61 2.8,16.96 0,5.41 -0.63,10.21 -1.89,14.39 -1.26,4.18 -2.89,7.65 -4.86,10.39 -1.99,2.74 -4.15,4.9 -6.51,6.46 -2.34,1.58 -5.18,2.77 -8.5,3.58 -3.34,0.81 -7.15,1.21 -11.47,1.21l-25.73 0zm9.46 -8.37l15.2 0c4.7,0 8.38,-0.43 11.05,-1.31 2.67,-0.88 4.8,-2.11 6.39,-3.7 2.22,-2.24 3.97,-5.26 5.21,-9.04 1.25,-3.78 1.87,-8.36 1.87,-13.76 0,-7.47 -1.23,-13.21 -3.67,-17.23 -2.44,-4.02 -5.41,-6.7 -8.91,-8.07 -2.52,-0.98 -6.59,-1.46 -12.2,-1.46l-14.96 0 0 54.57z"/>
 </g>
</svg>
