<?xml version="1.0" encoding="UTF-8"?>
<!DOCTYPE svg PUBLIC "-//W3C//DTD SVG 1.1//EN" "http://www.w3.org/Graphics/SVG/1.1/DTD/svg11.dtd">
<!-- Creator: CorelDRAW 2020 (64-Bit) -->
<svg xmlns="http://www.w3.org/2000/svg" xml:space="preserve" width="9.73226in" height="8.667in" version="1.1" style="shape-rendering:geometricPrecision; text-rendering:geometricPrecision; image-rendering:optimizeQuality; fill-rule:evenodd; clip-rule:evenodd"
viewBox="0 0 15578.43 13873.26"
 xmlns:xlink="http://www.w3.org/1999/xlink"
 xmlns:xodm="http://www.corel.com/coreldraw/odm/2003">
 <defs>
  <style type="text/css">
   <![CDATA[
    .fil0 {fill:black;fill-rule:nonzero}
   ]]>
  </style>
 </defs>
 <g id="Слой_x0020_1">
  <metadata id="CorelCorpID_0Corel-Layer"/>
  <path class="fil0" d="M15578.43 6938.22c0,-1031.99 -1292.38,-2010.01 -3273.83,-2616.51 457.26,-2019.55 254.04,-3626.3 -641.43,-4140.71 -206.4,-120.66 -447.74,-177.82 -711.28,-177.82l0 708.11c146.07,0 263.56,28.58 362,82.56 431.85,247.69 619.21,1190.77 473.13,2403.77 -34.93,298.49 -92.08,612.85 -161.95,933.56 -622.38,-152.42 -1301.91,-269.91 -2016.37,-346.12 -428.68,-587.44 -873.23,-1120.91 -1320.97,-1587.69 1035.18,-962.14 2006.84,-1489.26 2667.33,-1489.26l0 -708.11c0,0 0,0 0,0 -873.23,0 -2016.37,622.38 -3172.21,1702.01 -1155.84,-1073.28 -2298.96,-1689.3 -3172.2,-1689.3l0 708.11c657.31,0 1632.15,523.93 2667.31,1479.73 -444.54,466.78 -889.09,997.07 -1311.41,1584.51 -717.64,76.22 -1397.17,193.7 -2019.55,349.3 -73.03,-317.54 -127.02,-625.55 -165.12,-920.87 -149.25,-1213 34.93,-2156.09 463.61,-2406.94 95.25,-57.15 219.11,-82.56 365.17,-82.56l0 -708.11c0,0 0,0 0,0 -266.73,0 -508.06,57.16 -717.64,177.82 -892.29,514.42 -1092.34,2117.98 -631.9,4131.18 -1975.09,609.67 -3261.13,1584.51 -3261.13,2613.33 0,1032 1292.39,2010.02 3273.83,2616.52 -457.26,2019.55 -254.04,3626.3 641.43,4140.71 206.4,120.66 447.74,177.82 714.47,177.82 873.23,0 2016.37,-622.38 3172.2,-1702.01 1155.84,1073.28 2298.98,1689.3 3172.21,1689.3 266.73,0 508.06,-57.16 717.64,-177.82 892.28,-514.42 1092.34,-2117.98 631.9,-4131.18 1968.73,-606.5 3254.76,-1584.51 3254.76,-2613.34zm-4134.35 -2117.98c-117.49,409.62 -263.56,831.95 -428.68,1254.28 -130.19,-254.04 -266.73,-508.06 -415.97,-762.1 -146.06,-254.04 -301.66,-501.71 -457.26,-743.04 450.91,66.69 885.94,149.26 1301.91,250.86zm-1454.32 3381.79c-247.69,428.68 -501.71,835.13 -765.27,1213 -473.13,41.28 -952.61,63.51 -1435.28,63.51 -479.49,0 -958.96,-22.23 -1428.91,-60.33 -263.56,-377.87 -520.77,-781.15 -768.44,-1206.66 -241.33,-415.97 -460.43,-838.3 -660.48,-1263.81 196.88,-425.48 419.16,-850.99 657.31,-1266.97 247.69,-428.68 501.71,-835.13 765.27,-1213 473.13,-41.28 952.6,-63.51 1435.27,-63.51 479.49,0 958.97,22.23 1428.93,60.33 263.56,377.87 520.77,781.14 768.44,1206.65 241.33,415.97 460.43,838.3 660.48,1263.8 -200.05,425.5 -419.16,851 -657.31,1266.98zm1025.64 -412.8c171.47,425.5 317.53,851 438.2,1263.81 -415.97,101.61 -854.17,187.34 -1308.26,254.03 155.6,-244.5 311.18,-495.35 457.26,-752.56 146.07,-254.05 282.61,-511.26 412.8,-765.28zm-3219.84 3388.13c-295.31,-304.84 -590.63,-644.6 -882.74,-1016.13 285.78,12.7 577.91,22.23 873.22,22.23 298.49,0 593.8,-6.35 882.75,-22.23 -285.79,371.53 -581.09,711.3 -873.23,1016.13zm-2362.47 -1870.3c-450.91,-66.67 -885.94,-149.24 -1301.91,-250.85 117.49,-409.63 263.56,-831.95 428.68,-1254.28 130.19,254.04 266.73,508.06 415.97,762.1 149.24,254.03 301.66,501.7 457.26,743.03zm2346.6 -6607.96c295.31,304.84 590.63,644.6 882.75,1016.13 -285.79,-12.7 -577.92,-22.23 -873.23,-22.23 -298.49,0 -593.8,6.35 -882.74,22.23 285.78,-371.53 581.08,-711.3 873.22,-1016.13zm-2349.78 1870.3c-155.6,244.5 -311.18,495.35 -457.26,752.56 -146.06,254.04 -282.6,508.06 -412.8,762.1 -171.47,-425.5 -317.53,-851 -438.2,-1263.81 415.99,-98.44 854.19,-184.17 1308.26,-250.85zm-2873.72 3975.56c-1124.09,-479.49 -1851.26,-1108.21 -1851.26,-1606.75 0,-498.53 727.17,-1130.43 1851.26,-1606.74 273.08,-117.48 571.57,-222.28 879.58,-320.71 181,622.38 419.16,1270.16 714.47,1933.8 -292.14,660.47 -527.12,1305.07 -704.94,1924.29 -314.36,-98.42 -612.85,-206.38 -889.1,-323.88zm1708.36 4537.64c-431.85,-247.69 -619.21,-1190.77 -473.13,-2403.77 34.93,-298.49 92.08,-612.85 161.95,-933.56 622.38,152.42 1301.91,269.91 2016.37,346.12 428.68,587.44 873.23,1120.91 1320.95,1587.69 -1035.17,962.14 -2006.82,1489.26 -2667.31,1489.26 -142.9,-3.18 -263.57,-31.76 -358.83,-85.73zm7532 -2419.66c149.25,1213 -34.93,2156.09 -463.61,2406.94 -95.25,57.15 -219.11,82.56 -365.17,82.56 -657.31,0 -1632.15,-523.93 -2667.33,-1479.73 444.55,-466.78 889.1,-997.07 1311.43,-1584.51 717.63,-76.22 1397.16,-193.7 2019.54,-349.3 73.05,320.72 130.2,628.73 165.13,924.04zm1222.52 -2117.98c-273.08,117.48 -571.57,222.28 -879.58,320.71 -181,-622.38 -419.16,-1270.16 -714.47,-1933.8 292.14,-660.46 527.12,-1305.07 704.94,-1924.27 314.36,98.44 612.85,206.4 892.28,323.88 1124.09,479.49 1851.26,1108.21 1851.26,1606.74 -3.18,498.54 -730.35,1130.43 -1854.44,1606.74zm-8411.58 -8532.25l0 0 0 0zm4629.7 6925.51c0,-801.44 -649.7,-1451.15 -1451.15,-1451.15 -801.45,0 -1451.14,649.71 -1451.14,1451.15 0,801.45 649.69,1451.15 1451.14,1451.15 801.45,0 1451.15,-649.71 1451.15,-1451.15zm1711.53 -6935.04l0 0 0 0z"/>
 </g>
</svg>
