<?xml version="1.0" encoding="UTF-8"?>
<!DOCTYPE svg PUBLIC "-//W3C//DTD SVG 1.1//EN" "http://www.w3.org/Graphics/SVG/1.1/DTD/svg11.dtd">
<!-- Creator: CorelDRAW 2020 (64-Bit) -->
<svg xmlns="http://www.w3.org/2000/svg" xml:space="preserve" width="9.12973in" height="8.667in" version="1.1" style="shape-rendering:geometricPrecision; text-rendering:geometricPrecision; image-rendering:optimizeQuality; fill-rule:evenodd; clip-rule:evenodd"
viewBox="0 0 1414.63 1342.93"
 xmlns:xlink="http://www.w3.org/1999/xlink"
 xmlns:xodm="http://www.corel.com/coreldraw/odm/2003">
 <defs>
  <style type="text/css">
   <![CDATA[
    .fil0 {fill:black;fill-rule:nonzero}
   ]]>
  </style>
 </defs>
 <g id="Слой_x0020_1">
  <metadata id="CorelCorpID_0Corel-Layer"/>
  <g id="_2017431098992">
   <path class="fil0" d="M980.19 937.89c52.21,-5.4 91.81,-50.4 90.01,-104.41 -1.8,-54.01 -46.8,-97.21 -100.81,-97.21l-3.6 0c-55.81,1.8 -99.01,48.6 -97.21,104.41 1.8,27 12.6,50.41 28.8,66.61 -61.21,120.61 -154.82,208.82 -295.23,282.63 -95.41,50.41 -194.42,68.41 -293.43,55.81 -81.01,-10.8 -144.01,-46.8 -183.62,-106.21 -57.61,-88.21 -63.01,-183.62 -14.4,-279.03 34.2,-68.41 88.21,-118.81 122.41,-144.01 -7.2,-23.4 -18,-63.01 -23.4,-91.81 -261.03,189.02 -234.02,444.64 -154.82,565.26 59.41,90.01 180.02,145.81 313.23,145.81 36,0 72.01,-3.6 108.01,-12.6 230.42,-45 405.04,-181.82 504.05,-385.24z"/>
   <path class="fil0" d="M1297.02 714.67c-136.81,-160.22 -338.43,-248.42 -568.86,-248.42l-28.8 0c-16.2,-32.4 -50.41,-54.01 -88.21,-54.01l-3.6 0c-55.81,1.8 -99.01,48.6 -97.21,104.41 1.8,54.01 46.8,97.21 100.81,97.21l3.6 0c39.6,-1.8 73.81,-27 88.21,-61.21l32.4 0c136.81,0 266.43,39.6 383.44,117.01 90.01,59.41 154.82,136.81 190.82,230.42 30.6,75.61 28.8,149.41 -3.6,212.42 -50.41,95.41 -135.01,147.61 -246.62,147.61 -72.01,0 -140.41,-21.6 -176.42,-37.8 -19.8,18 -55.81,46.8 -81.01,64.81 77.41,36 156.62,55.81 232.22,55.81 172.82,0 300.63,-95.41 349.23,-190.82 52.2,-104.41 48.6,-284.43 -86.41,-437.44z"/>
   <path class="fil0" d="M382.53 968.5c1.8,54.01 46.8,97.21 100.81,97.21l3.6 0c55.81,-1.8 99.01,-48.6 97.21,-104.41 -1.8,-54.01 -46.8,-97.21 -100.81,-97.21l-3.6 0c-3.6,0 -9,0 -12.6,1.8 -73.81,-122.41 -104.41,-255.63 -93.61,-399.64 7.2,-108.01 43.2,-201.62 106.21,-279.03 52.2,-66.61 153.01,-99.01 221.42,-100.81 190.82,-3.6 271.83,234.02 277.23,329.43 23.4,5.4 63.01,18 90.01,27 -21.6,-291.63 -201.62,-442.84 -374.44,-442.84 -162.02,0 -311.43,117.01 -370.84,289.83 -82.81,230.42 -28.8,451.85 72.01,626.46 -9,12.6 -14.4,32.4 -12.6,52.21z"/>
  </g>
 </g>
</svg>
