<?xml version="1.0" encoding="UTF-8"?>
<!DOCTYPE svg PUBLIC "-//W3C//DTD SVG 1.1//EN" "http://www.w3.org/Graphics/SVG/1.1/DTD/svg11.dtd">
<!-- Creator: CorelDRAW 2020 (64-Bit) -->
<svg xmlns="http://www.w3.org/2000/svg" xml:space="preserve" width="8.667in" height="8.667in" version="1.1" style="shape-rendering:geometricPrecision; text-rendering:geometricPrecision; image-rendering:optimizeQuality; fill-rule:evenodd; clip-rule:evenodd"
viewBox="0 0 2515.05 2515.05"
 xmlns:xlink="http://www.w3.org/1999/xlink"
 xmlns:xodm="http://www.corel.com/coreldraw/odm/2003">
 <defs>
  <style type="text/css">
   <![CDATA[
    .fil0 {fill:black}
    .fil1 {fill:#FFFEFE}
   ]]>
  </style>
 </defs>
 <g id="Слой_x0020_1">
  <metadata id="CorelCorpID_0Corel-Layer"/>
  <path class="fil0" d="M966.04 1568.85c-0.75,-0.7 -1.85,-1.72 -2.65,-2.42 -3.48,-3.06 -7.39,-5.84 -11.2,-8.56 -7.73,-5.51 -14.43,-9.93 -22.98,-16.25l-138.81 -97.01c-231.57,-166.58 -372.65,-323.31 -175.56,-579.23 165.75,-215.23 502.86,-415.46 788.55,-469.13 183.64,-34.5 391.68,-24.21 515.74,76.8 138.22,112.54 86.49,319.77 -10.55,448.21 -136.08,180.11 -436.23,295.62 -678.07,240.28 -63.18,-14.46 -142.84,-57.31 -157.57,-117.97l2.83 -28.8c26.31,6.58 24.21,33.51 101.47,62.74 42.49,16.08 95.62,20.88 144.34,18.44 423.49,-21.24 763.77,-496.6 412.11,-584.54 -93,-23.26 -196.61,-9.76 -286.87,12.11 -254.37,61.64 -883.87,373.98 -719.03,684.12 44.35,83.45 208.17,201.95 293.53,271.4 61.1,49.7 19.52,59.25 98.15,43.43 110.29,-22.18 246.32,-21.18 336.93,32.36 63,37.22 120.57,95.78 124.9,198.92 2.19,52.32 -18.22,92.37 -43.91,117.67 -18.65,18.37 -68.1,54.61 -106.25,38.25 14.13,-20.18 39.87,-18.08 62.46,-42.7 123.42,-134.46 -94.62,-341.09 -377.74,-265.35 55.9,219.58 -26.61,424.86 -223.45,499.17 -59.94,22.63 -140.48,43.42 -207.14,18.84 -60.37,-22.26 -93.64,-81.67 -90.66,-164.62 3.62,-100.76 70.08,-154.8 113.13,-201.05 72.76,-78.17 244.03,-158.73 265.88,-177.17l-7.6 -7.96zm-966.04 -1230.95l0 1839.21c7.43,17.6 8.97,46.49 15.09,67.33 29.15,99.16 98.13,181.51 188.49,228.96 40.23,21.12 93.18,26.95 123.26,41.65l1857.66 0c45.71,-21.58 115.67,-16.46 200.22,-91.11 122.51,-108.16 112.08,-204.08 130.31,-246.94l0 -1834.92c-19.36,-50.77 -7.55,-142.68 -130.25,-251.02 -86.7,-76.55 -173.14,-78.36 -200.17,-91.05l-1854.21 0c-63.11,29.62 -99.97,-2 -221.53,113.8 -45.8,43.63 -74.97,92.6 -93.82,156.79 -6.02,20.51 -7.96,50.44 -15.06,67.31z"/>
  <path class="fil1" d="M1021.12 1646.9c87.17,222.28 -171.77,415.09 -267.25,359.95 -39.26,-22.67 -21.79,-88.22 -4.25,-127.48 30.15,-67.48 102.63,-131.03 162.85,-171.07 33.21,-22.08 72.07,-45.85 108.64,-61.39zm-47.49 -70.08c-21.85,18.44 -193.12,99 -265.88,177.17 -43.05,46.25 -109.51,100.28 -113.13,201.05 -2.98,82.95 30.29,142.36 90.66,164.62 66.66,24.58 147.2,3.79 207.14,-18.84 196.84,-74.31 279.35,-279.6 223.45,-499.17 283.11,-75.74 501.16,130.89 377.74,265.35 -22.6,24.62 -48.33,22.52 -62.46,42.7 38.15,16.36 87.6,-19.88 106.25,-38.25 25.68,-25.3 46.1,-65.35 43.91,-117.67 -4.32,-103.14 -61.9,-161.7 -124.9,-198.92 -90.61,-53.54 -226.64,-54.54 -336.93,-32.36 -78.63,15.81 -37.05,6.27 -98.15,-43.43 -85.37,-69.44 -249.18,-187.94 -293.53,-271.4 -164.84,-310.14 464.67,-622.48 719.03,-684.12 90.26,-21.87 193.87,-35.37 286.87,-12.11 351.66,87.94 11.38,563.3 -412.11,584.54 -48.71,2.44 -101.85,-2.36 -144.34,-18.44 -77.26,-29.23 -75.16,-56.16 -101.47,-62.74l-2.83 28.8c14.73,60.65 94.4,103.51 157.57,117.97 241.84,55.34 541.99,-60.17 678.07,-240.28 97.04,-128.44 148.77,-335.67 10.55,-448.21 -124.06,-101.01 -332.1,-111.29 -515.74,-76.8 -285.69,53.67 -622.8,253.9 -788.55,469.13 -197.09,255.92 -56.01,412.65 175.56,579.23l138.81 97.01c8.54,6.33 15.25,10.74 22.98,16.25 3.81,2.72 7.72,5.5 11.2,8.56 0.8,0.7 1.9,1.72 2.65,2.42l7.6 7.96z"/>
  <path class="fil0" d="M1021.12 1646.9c-36.57,15.54 -75.43,39.31 -108.64,61.39 -60.22,40.05 -132.7,103.59 -162.85,171.07 -17.54,39.26 -35.01,104.81 4.25,127.48 95.49,55.14 354.42,-137.67 267.25,-359.95z"/>
 </g>
</svg>
