<?xml version="1.0" encoding="UTF-8"?>
<!DOCTYPE svg PUBLIC "-//W3C//DTD SVG 1.1//EN" "http://www.w3.org/Graphics/SVG/1.1/DTD/svg11.dtd">
<!-- Creator: CorelDRAW 2020 (64-Bit) -->
<svg xmlns="http://www.w3.org/2000/svg" xml:space="preserve" width="8.667in" height="8.667in" version="1.1" style="shape-rendering:geometricPrecision; text-rendering:geometricPrecision; image-rendering:optimizeQuality; fill-rule:evenodd; clip-rule:evenodd"
viewBox="0 0 1227.47 1227.47"
 xmlns:xlink="http://www.w3.org/1999/xlink"
 xmlns:xodm="http://www.corel.com/coreldraw/odm/2003">
 <defs>
  <style type="text/css">
   <![CDATA[
    .fil0 {fill:black}
    .fil1 {fill:#FEFEFF}
   ]]>
  </style>
 </defs>
 <g id="Слой_x0020_1">
  <metadata id="CorelCorpID_0Corel-Layer"/>
  <path class="fil0" d="M282.88 582.61l429.94 0 -0.79 98.26 -153.84 0 0.4 438.35 -121.53 0.44 -0.89 -5.65 0.15 -433.14 -153.42 0 -0.01 -98.26zm477.47 399.08c10.74,5 21.39,16.66 54.03,30.77 65.14,28.15 181.76,29.93 181.65,-35.89 -0.11,-72.01 -151.3,-84.24 -206.21,-153.74 -10.04,-12.71 -17.5,-22.67 -23.52,-38.83 -8.63,-23.18 -11.24,-48.91 -8.37,-75.55 10.91,-101.21 108.17,-136.27 197.77,-139.02 37.74,-1.16 117.89,4.23 146.39,20.98l0 110.83c-3.42,-0.64 -20.24,-11.46 -27.37,-14.65 -46.9,-20.97 -127.98,-33.87 -171.21,-3.67 -16.11,11.25 -28.13,35.18 -13.55,58.93 31.98,52.07 135.78,53.37 205.55,131.71 43.71,49.08 33.96,151.6 -4.66,193.34 -6.5,7.02 -14.35,13.97 -22.04,19.47 -61.64,44.13 -173.71,46.28 -247.97,30.04 -11.2,-2.45 -45.6,-12.21 -55.7,-17.99 -6,-3.43 -2.84,-0.42 -5.18,-5.22l0.41 -111.52zm-760.36 -876.06l0 1016.19c8.33,17.9 4.94,40.46 35.18,70.46 10.29,10.21 16.87,14.72 30.68,22.12 15.4,8.25 28.81,7.66 41.04,13.05l1013.69 0c25.71,-11.37 33.98,-0.52 71.6,-35.28 9.34,-8.63 16.08,-18.01 22.31,-30.47 3.35,-6.7 5.5,-11.96 7.74,-19.4 1.98,-6.57 2.64,-15.87 5.23,-21.74l0 -1013.68c-4.7,-10.66 -4.74,-43.36 -35.28,-71.62 -12.25,-11.33 -13.62,-13.75 -31.59,-22.8 -14.78,-7.44 -28.72,-7.53 -39.99,-12.47l-1013.75 0c-12.25,5.37 -25.62,4.84 -41.05,13.02 -23.78,12.61 -40.76,29.06 -52.78,52.82 -7.11,14.05 -8.14,29.28 -13.03,39.8z"/>
  <path class="fil1" d="M760.36 981.7l-0.41 111.52c2.34,4.8 -0.82,1.79 5.18,5.22 10.11,5.78 44.5,15.54 55.7,17.99 74.27,16.25 186.33,14.09 247.97,-30.04 7.69,-5.5 15.54,-12.45 22.04,-19.47 38.62,-41.74 48.37,-144.26 4.66,-193.34 -69.77,-78.34 -173.58,-79.64 -205.55,-131.71 -14.58,-23.75 -2.56,-47.67 13.55,-58.93 43.23,-30.2 124.32,-17.3 171.21,3.67 7.13,3.19 23.95,14.01 27.37,14.65l0 -110.83c-28.5,-16.75 -108.65,-22.14 -146.39,-20.98 -89.6,2.75 -186.86,37.81 -197.77,139.02 -2.87,26.63 -0.26,52.37 8.37,75.55 6.02,16.16 13.48,26.12 23.52,38.83 54.91,69.5 206.1,81.72 206.21,153.74 0.1,65.83 -116.51,64.05 -181.65,35.89 -32.64,-14.11 -43.29,-25.77 -54.03,-30.77z"/>
  <polygon class="fil1" points="282.89,680.87 436.32,680.87 436.17,1114.01 437.06,1119.66 558.59,1119.22 558.19,680.87 712.04,680.87 712.83,582.61 282.88,582.61 "/>
 </g>
</svg>
